<mxfile host="app.diagrams.net" modified="2022-07-18T02:03:38.119Z" agent="5.0 (Macintosh; Intel Mac OS X 10_15_7) AppleWebKit/537.36 (KHTML, like Gecko) Chrome/103.0.0.0 Safari/537.36" etag="56B_mSEbDQ4uf1ivh7DN" version="20.1.1" type="github">
  <diagram id="3228e29e-7158-1315-38df-8450db1d8a1d" name="Page-1">
    <mxGraphModel dx="1298" dy="379" grid="0" gridSize="10" guides="1" tooltips="1" connect="1" arrows="1" fold="1" page="1" pageScale="1" pageWidth="800" pageHeight="320" background="#EFF1F3" math="0" shadow="0">
      <root>
        <mxCell id="0" />
        <mxCell id="1" parent="0" />
        <mxCell id="p1h1nwEygJZJCR_WZmpz-5" value="" style="rounded=1;whiteSpace=wrap;html=1;strokeColor=#000000;fillColor=none;dashed=1;strokeWidth=2;" parent="1" vertex="1">
          <mxGeometry x="171" y="366" width="109" height="81" as="geometry" />
        </mxCell>
        <mxCell id="aMB2SkQLuwcF9kNnRCJI-1" value="&lt;div style=&quot;font-family: Menlo, Monaco, &amp;quot;Courier New&amp;quot;, monospace; font-size: 16px; line-height: 24px;&quot;&gt;&lt;div style=&quot;&quot;&gt;header&lt;/div&gt;&lt;/div&gt;" style="rounded=1;whiteSpace=wrap;html=1;strokeWidth=5;fontSize=30;strokeColor=#FDD276;fillColor=#FDD276;align=center;" parent="1" vertex="1">
          <mxGeometry x="182" y="375" width="85" height="29" as="geometry" />
        </mxCell>
        <mxCell id="p1h1nwEygJZJCR_WZmpz-1" value="" style="shape=image;verticalLabelPosition=bottom;labelBackgroundColor=default;verticalAlign=top;aspect=fixed;imageAspect=0;image=data:image/svg+xml,PHN2ZyB4bWxuczp4bGluaz0iaHR0cDovL3d3dy53My5vcmcvMTk5OS94bGluayIgeG1sbnM9Imh0dHA6Ly93d3cudzMub3JnLzIwMDAvc3ZnIiBoZWlnaHQ9IjIwMCIgd2lkdGg9IjIxNi43OTY4NzUiIHZlcnNpb249IjEuMSIgdmlld0JveD0iMCAwIDExMTAgMTAyNCIgY2xhc3M9Imljb24iPjxkZWZzPjxzdHlsZSB0eXBlPSJ0ZXh0L2NzcyI+QGZvbnQtZmFjZSB7IGZvbnQtZmFtaWx5OiBmZWVkYmFjay1pY29uZm9udDsgc3JjOiB1cmwoIi8vYXQuYWxpY2RuLmNvbS90L2ZvbnRfMTAzMTE1OF91Njl3OHloeGR1LndvZmYyP3Q9MTYzMDAzMzc1OTk0NCIpIGZvcm1hdCgid29mZjIiKSwgdXJsKCIvL2F0LmFsaWNkbi5jb20vdC9mb250XzEwMzExNThfdTY5dzh5aHhkdS53b2ZmP3Q9MTYzMDAzMzc1OTk0NCIpIGZvcm1hdCgid29mZiIpLCB1cmwoIi8vYXQuYWxpY2RuLmNvbS90L2ZvbnRfMTAzMTE1OF91Njl3OHloeGR1LnR0Zj90PTE2MzAwMzM3NTk5NDQiKSBmb3JtYXQoInRydWV0eXBlIik7IH0mI3hhOzwvc3R5bGU+PC9kZWZzPjxwYXRoIGZpbGw9IiM1MzVFODAiIGQ9Ik05NDYuOTM5NjYxIDQxOC4zMTI2NzhhMjMuMTcwMTY5IDIzLjE3MDE2OSAwIDAgMCAyMy4xMDA3NDYtMjMuMjM5NTkzVjExNi4xOTc5NjZjMC02NC4wNDMzOS01MS43ODE0MjQtMTE2LjE5Nzk2Ni0xMTUuNDg2MzczLTExNi4xOTc5NjZIMTE1LjQ3NzY5NUM1MS43ODE0MjQgMCAwIDUyLjE1NDU3NiAwIDExNi4xOTc5NjZ2NzkwLjE1NDg0OGMwIDY0LjA0MzM5IDUxLjc4MTQyNCAxMTYuMTk3OTY2IDExNS40Nzc2OTUgMTE2LjE5Nzk2Nmg3MzkuMDc2MzM5YzYzLjY5NjI3MSAwIDExNS40Nzc2OTUtNTIuMTU0NTc2IDExNS40Nzc2OTUtMTE2LjE5Nzk2NlY3NjYuOTE1MjU0YTIzLjE3MDE2OSAyMy4xNzAxNjkgMCAwIDAtMjMuMDkyMDY4LTIzLjIzOTU5MyAyMy4xNzAxNjkgMjMuMTcwMTY5IDAgMCAwLTIzLjEwMDc0NiAyMy4yMzk1OTN2MTM5LjQzNzU2YzAgMzguNDQzMzktMzEuMDg0NDc1IDY5LjcxODc4LTY5LjI4NDg4MSA2OS43MTg3NzlIMTE1LjQ3NzY5NWMtMzguMjAwNDA3IDAtNjkuMjg0ODgxLTMxLjI4NDA2OC02OS4yODQ4ODEtNjkuNzE4Nzc5VjIzMi4zOTU5MzJoODc3LjY1NDc3OXYxNjIuNjc3MTUzYTIzLjE3MDE2OSAyMy4xNzAxNjkgMCAwIDAgMjMuMDkyMDY4IDIzLjIzOTU5M3pNNDYuMTkyODE0IDE4NS45MTY3NDZWMTE2LjE5Nzk2NmMwLTM4LjQ0MzM5IDMxLjA4NDQ3NS02OS43MTg3OCA2OS4yODQ4ODEtNjkuNzE4NzhoNzM5LjA3NjMzOWMzOC4yMDA0MDcgMCA2OS4yOTM1NTkgMzEuMjg0MDY4IDY5LjI5MzU1OSA2OS43MTg3OHY2OS43MTg3OEg0Ni4xOTI4MTR6IG02OS4yODQ4ODEtNDYuNDc5MTg3YTIzLjE3MDE2OSAyMy4xNzAxNjkgMCAwIDAgMjMuMTAwNzQ2LTIzLjIzOTU5MyAyMy4xNzAxNjkgMjMuMTcwMTY5IDAgMCAwLTIzLjEwMDc0Ni0yMy4yMzk1OTMgMjMuMTcwMTY5IDIzLjE3MDE2OSAwIDAgMC0yMy4wOTIwNjggMjMuMjM5NTkzIDIzLjE3MDE2OSAyMy4xNzAxNjkgMCAwIDAgMjMuMDkyMDY4IDIzLjIzOTU5M3ogbTkyLjM4NTYyNyAwYTIzLjE3MDE2OSAyMy4xNzAxNjkgMCAwIDAgMjMuMTAwNzQ2LTIzLjIzOTU5MyAyMy4xNzAxNjkgMjMuMTcwMTY5IDAgMCAwLTIzLjEwMDc0Ni0yMy4yMzk1OTMgMjMuMTcwMTY5IDIzLjE3MDE2OSAwIDAgMC0yMy4wOTIwNjggMjMuMjM5NTkzIDIzLjE3MDE2OSAyMy4xNzAxNjkgMCAwIDAgMjMuMDkyMDY4IDIzLjIzOTU5M3ogbTkyLjM4NTYyNyAwYTIzLjE3MDE2OSAyMy4xNzAxNjkgMCAwIDAgMjMuMTAwNzQ2LTIzLjIzOTU5MyAyMy4xNzAxNjkgMjMuMTcwMTY5IDAgMCAwLTIzLjEwMDc0Ni0yMy4yMzk1OTMgMjMuMTcwMTY5IDIzLjE3MDE2OSAwIDAgMC0yMy4wOTIwNjggMjMuMjM5NTkzIDIzLjE3MDE2OSAyMy4xNzAxNjkgMCAwIDAgMjMuMDkyMDY4IDIzLjIzOTU5M3pNMjU0LjA1NjEzNiA0NjQuNzkxODY0YTIzLjE3MDE2OSAyMy4xNzAxNjkgMCAwIDEgMjMuMTAwNzQ1IDIzLjI0ODI3MnYxODUuOTE2NzQ1YTIzLjE3MDE2OSAyMy4xNzAxNjkgMCAwIDEtMjMuMTAwNzQ1IDIzLjIzOTU5NCAyMy4xNzAxNjkgMjMuMTcwMTY5IDAgMCAxLTIzLjA5MjA2OC0yMy4yMzk1OTR2LTY5LjcxODc3OUgxMzguNTc4NDQxdjY5LjcxODc3OWEyMy4xNzAxNjkgMjMuMTcwMTY5IDAgMCAxLTIzLjEwMDc0NiAyMy4yMzk1OTQgMjMuMTcwMTY5IDIzLjE3MDE2OSAwIDAgMS0yMy4wOTIwNjgtMjMuMjM5NTk0VjQ4OC4wNDAxMzZhMjMuMTcwMTY5IDIzLjE3MDE2OSAwIDAgMSAyMy4wOTIwNjgtMjMuMjQ4MjcyIDIzLjE3MDE2OSAyMy4xNzAxNjkgMCAwIDEgMjMuMTAwNzQ2IDIzLjI0ODI3MnY2OS43MTg3NzloOTIuMzg1NjI3di02OS43MTg3NzlhMjMuMTcwMTY5IDIzLjE3MDE2OSAwIDAgMSAyMy4wOTIwNjgtMjMuMjQ4MjcyeiBtMTg0Ljc3MTI1NCAwYTIzLjE3MDE2OSAyMy4xNzAxNjkgMCAwIDEgMjMuMTAwNzQ2IDIzLjIzOTU5NCAyMy4xNzAxNjkgMjMuMTcwMTY5IDAgMCAxLTIzLjEwMDc0NiAyMy4yMzk1OTNoLTIzLjEwMDc0NnYxNjIuNjg1ODNhMjMuMTcwMTY5IDIzLjE3MDE2OSAwIDAgMS0yMy4wODMzOSAyMy4yMzk1OTQgMjMuMTcwMTY5IDIzLjE3MDE2OSAwIDAgMS0yMy4xMDA3NDYtMjMuMjM5NTk0VjUxMS4yNzk3MjloLTIzLjEwMDc0NWEyMy4xNzAxNjkgMjMuMTcwMTY5IDAgMCAxLTIzLjEwMDc0Ni0yMy4yMzk1OTMgMjMuMTcwMTY5IDIzLjE3MDE2OSAwIDAgMSAyMy4xMDA3NDYtMjMuMjQ4MjcyaDkyLjM4NTYyN3ogbTE4NC43NzEyNTQgMGEyMy4xNzAxNjkgMjMuMTcwMTY5IDAgMCAxIDIzLjA5MjA2OCAyMy4yNDgyNzIgMjMuMTcwMTY5IDIzLjE3MDE2OSAwIDAgMS0yMy4wOTIwNjggMjMuMjM5NTkzaC0yMy4xMDA3NDZ2MTYyLjY3NzE1MmEyMy4xNzAxNjkgMjMuMTcwMTY5IDAgMCAxLTIzLjA5MjA2NyAyMy4yMzk1OTQgMjMuMTcwMTY5IDIzLjE3MDE2OSAwIDAgMS0yMy4xMDA3NDYtMjMuMjM5NTk0VjUxMS4yNzk3MjloLTIzLjA5MjA2OGEyMy4xNzAxNjkgMjMuMTcwMTY5IDAgMCAxLTIzLjEwMDc0Ni0yMy4yMzk1OTMgMjMuMTcwMTY5IDIzLjE3MDE2OSAwIDAgMSAyMy4xMDA3NDYtMjMuMjQ4MjcySDYyMy41OTg2NDR6IG0xMzguNTY5NzYzIDBjMzguMjA5MDg1IDAgNjkuMjkzNTU5IDMxLjI4NDA2OCA2OS4yOTM1NTkgNjkuNzE4NzggMCAzOC40NDMzOS0zMS4wODQ0NzUgNjkuNzI3NDU4LTY5LjI5MzU1OSA2OS43Mjc0NThoLTIzLjA4MzM5djY5LjcxODc3OWEyMy4xNzAxNjkgMjMuMTcwMTY5IDAgMCAxLTIzLjEwMDc0NiAyMy4yMzk1OTQgMjMuMTcwMTY5IDIzLjE3MDE2OSAwIDAgMS0yMy4xMDA3NDYtMjMuMjM5NTk0VjQ4OC4wNDAxMzZhMjMuMTcwMTY5IDIzLjE3MDE2OSAwIDAgMSAyMy4xMDA3NDYtMjMuMjQ4MjcyaDQ2LjE4NDEzNnogbTAgOTIuOTU4MzczYzEyLjcwNDU0MiAwIDIzLjEwMDc0Ni0xMC40MTM1NTkgMjMuMTAwNzQ2LTIzLjIzOTU5M2EyMy4yMDQ4ODEgMjMuMjA0ODgxIDAgMCAwLTIzLjEwMDc0Ni0yMy4yMzk1OTNoLTIzLjA5MjA2OHY0Ni40NzkxODZoMjMuMDkyMDY4eiBtMzI4LjkzODMwNS05Mi4yNTU0NTdhMjMuMTk2MjAzIDIzLjE5NjIwMyAwIDAgMSAxNi44MTc4OTggMjguMTY4Njc4bC00Ni4xOTI4MTMgMTg1LjkxNjc0NWEyMy4wNDg2NzggMjMuMDQ4Njc4IDAgMCAxLTI3Ljk5NTExOSAxNi45MjIwMzQgMjMuMTk2MjAzIDIzLjE5NjIwMyAwIDAgMS0xNi44MDkyMi0yOC4xNzczNTZsNDYuMTg0MTM1LTE4NS45MTY3NDVjMy4wNTQ2NDQtMTIuNDk2MjcxIDE1LjQyOTQyNC0yMC4xNjc1OTMgMjcuOTk1MTE5LTE2LjkyMjAzNHogbS05Mi4zODU2MjcgMGEyMy4xOTYyMDMgMjMuMTk2MjAzIDAgMCAxIDE2LjgxNzg5OCAyOC4xNjg2NzhsLTQ2LjE5MjgxNCAxODUuOTE2NzQ1YTIzLjA0ODY3OCAyMy4wNDg2NzggMCAwIDEtMjcuOTk1MTE4IDE2LjkyMjAzNCAyMy4xOTYyMDMgMjMuMTk2MjAzIDAgMCAxLTE2LjgwOTIyLTI4LjE3NzM1Nmw0Ni4xOTI4MTMtMTg1LjkxNjc0NWMzLjAzNzI4OC0xMi40OTYyNzEgMTUuMzc3MzU2LTIwLjE2NzU5MyAyNy45ODY0NDEtMTYuOTIyMDM0eiBtLTk3Ljk3NDIzOCA5Mi4yNjQxMzVhMjMuMTcwMTY5IDIzLjE3MDE2OSAwIDAgMS0yMy4wOTIwNjctMjMuMjQ4MjcxIDIzLjE3MDE2OSAyMy4xNzAxNjkgMCAwIDEgMjMuMDkyMDY3LTIzLjIzOTU5MyAyMy4xNzAxNjkgMjMuMTcwMTY5IDAgMCAxIDIzLjEwMDc0NiAyMy4yMzk1OTMgMjMuMTcwMTY5IDIzLjE3MDE2OSAwIDAgMS0yMy4xMDA3NDYgMjMuMjQ4MjcxeiBtMCA5Mi45NTgzNzNhMjMuMTcwMTY5IDIzLjE3MDE2OSAwIDAgMS0yMy4wOTIwNjctMjMuMjM5NTkzIDIzLjE3MDE2OSAyMy4xNzAxNjkgMCAwIDEgMjMuMDkyMDY3LTIzLjIzOTU5MyAyMy4xNzAxNjkgMjMuMTcwMTY5IDAgMCAxIDIzLjEwMDc0NiAyMy4yMzk1OTMgMjMuMTcwMTY5IDIzLjE3MDE2OSAwIDAgMS0yMy4xMDA3NDYgMjMuMjM5NTkzeiIvPjwvc3ZnPg==;" parent="1" vertex="1">
          <mxGeometry x="39" y="547" width="68.35" height="63" as="geometry" />
        </mxCell>
        <mxCell id="p1h1nwEygJZJCR_WZmpz-3" value="" style="shape=flexArrow;endArrow=classic;startArrow=classic;html=1;rounded=0;strokeColor=none;fillColor=#67AB9F;" parent="1" edge="1">
          <mxGeometry width="100" height="100" relative="1" as="geometry">
            <mxPoint x="297" y="408" as="sourcePoint" />
            <mxPoint x="506" y="408" as="targetPoint" />
          </mxGeometry>
        </mxCell>
        <mxCell id="p1h1nwEygJZJCR_WZmpz-4" value="&lt;div style=&quot;font-family: Menlo, Monaco, &amp;quot;Courier New&amp;quot;, monospace; line-height: 24px;&quot;&gt;&lt;div style=&quot;&quot;&gt;&lt;font style=&quot;font-size: 15px;&quot;&gt;body&lt;/font&gt;&lt;/div&gt;&lt;/div&gt;" style="rounded=1;whiteSpace=wrap;html=1;strokeWidth=5;fontSize=30;strokeColor=#67AB9F;fillColor=#67AB9F;align=center;" parent="1" vertex="1">
          <mxGeometry x="182" y="408" width="85" height="29" as="geometry" />
        </mxCell>
        <mxCell id="p1h1nwEygJZJCR_WZmpz-7" value="" style="fontColor=#0066CC;verticalAlign=top;verticalLabelPosition=bottom;labelPosition=center;align=center;html=1;outlineConnect=0;fillColor=#535E80;strokeColor=#000000;gradientColor=none;gradientDirection=north;strokeWidth=2;shape=mxgraph.networks.server;fontSize=15;" parent="1" vertex="1">
          <mxGeometry x="688" y="542" width="60" height="64" as="geometry" />
        </mxCell>
        <mxCell id="p1h1nwEygJZJCR_WZmpz-8" value="&lt;div style=&quot;font-family: Menlo, Monaco, &amp;quot;Courier New&amp;quot;, monospace; line-height: 24px;&quot;&gt;&lt;div style=&quot;&quot;&gt;&lt;font style=&quot;font-size: 15px;&quot;&gt;struct&lt;/font&gt;&lt;/div&gt;&lt;/div&gt;" style="rounded=1;whiteSpace=wrap;html=1;strokeWidth=5;fontSize=30;strokeColor=#67AB9F;fillColor=#67AB9F;align=center;" parent="1" vertex="1">
          <mxGeometry x="182" y="564" width="85" height="29" as="geometry" />
        </mxCell>
        <mxCell id="p1h1nwEygJZJCR_WZmpz-11" value="&lt;font color=&quot;#4a919b&quot;&gt;{ JSON }&lt;/font&gt;" style="text;html=1;strokeColor=none;fillColor=none;align=center;verticalAlign=middle;whiteSpace=wrap;rounded=0;fontSize=15;" parent="1" vertex="1">
          <mxGeometry x="186" y="490" width="72" height="30" as="geometry" />
        </mxCell>
        <mxCell id="p1h1nwEygJZJCR_WZmpz-13" value="" style="shape=flexArrow;endArrow=classic;html=1;rounded=0;fontSize=15;fontColor=#4A919B;strokeColor=none;fillColor=#67AB9F;" parent="1" edge="1">
          <mxGeometry width="50" height="50" relative="1" as="geometry">
            <mxPoint x="224.17000000000002" y="555" as="sourcePoint" />
            <mxPoint x="224.17000000000002" y="518" as="targetPoint" />
          </mxGeometry>
        </mxCell>
        <mxCell id="p1h1nwEygJZJCR_WZmpz-14" value="" style="shape=flexArrow;endArrow=classic;html=1;rounded=0;fontSize=15;fontColor=#4A919B;strokeColor=none;fillColor=#67AB9F;" parent="1" edge="1">
          <mxGeometry width="50" height="50" relative="1" as="geometry">
            <mxPoint x="223.67000000000007" y="490" as="sourcePoint" />
            <mxPoint x="223.67000000000007" y="453" as="targetPoint" />
          </mxGeometry>
        </mxCell>
        <mxCell id="p1h1nwEygJZJCR_WZmpz-15" value="序列化" style="text;html=1;strokeColor=none;fillColor=none;align=center;verticalAlign=middle;whiteSpace=wrap;rounded=0;fontSize=15;fontColor=#4A919B;" parent="1" vertex="1">
          <mxGeometry x="247" y="460" width="60" height="30" as="geometry" />
        </mxCell>
        <mxCell id="p1h1nwEygJZJCR_WZmpz-16" value="" style="rounded=1;whiteSpace=wrap;html=1;strokeColor=#000000;fillColor=none;dashed=1;strokeWidth=2;" parent="1" vertex="1">
          <mxGeometry x="520" y="366" width="109" height="81" as="geometry" />
        </mxCell>
        <mxCell id="p1h1nwEygJZJCR_WZmpz-17" value="&lt;div style=&quot;font-family: Menlo, Monaco, &amp;quot;Courier New&amp;quot;, monospace; font-size: 16px; line-height: 24px;&quot;&gt;&lt;div style=&quot;&quot;&gt;header&lt;/div&gt;&lt;/div&gt;" style="rounded=1;whiteSpace=wrap;html=1;strokeWidth=5;fontSize=30;strokeColor=#FDD276;fillColor=#FDD276;align=center;" parent="1" vertex="1">
          <mxGeometry x="531" y="375" width="85" height="29" as="geometry" />
        </mxCell>
        <mxCell id="p1h1nwEygJZJCR_WZmpz-18" value="&lt;div style=&quot;font-family: Menlo, Monaco, &amp;quot;Courier New&amp;quot;, monospace; line-height: 24px;&quot;&gt;&lt;div style=&quot;&quot;&gt;&lt;font style=&quot;font-size: 15px;&quot;&gt;body&lt;/font&gt;&lt;/div&gt;&lt;/div&gt;" style="rounded=1;whiteSpace=wrap;html=1;strokeWidth=5;fontSize=30;strokeColor=#67AB9F;fillColor=#67AB9F;align=center;" parent="1" vertex="1">
          <mxGeometry x="531" y="408" width="85" height="29" as="geometry" />
        </mxCell>
        <mxCell id="p1h1nwEygJZJCR_WZmpz-19" value="&lt;div style=&quot;font-family: Menlo, Monaco, &amp;quot;Courier New&amp;quot;, monospace; line-height: 24px;&quot;&gt;&lt;div style=&quot;&quot;&gt;&lt;font style=&quot;font-size: 15px;&quot;&gt;struct&lt;/font&gt;&lt;/div&gt;&lt;/div&gt;" style="rounded=1;whiteSpace=wrap;html=1;strokeWidth=5;fontSize=30;strokeColor=#67AB9F;fillColor=#67AB9F;align=center;" parent="1" vertex="1">
          <mxGeometry x="536" y="566" width="85" height="29" as="geometry" />
        </mxCell>
        <mxCell id="p1h1nwEygJZJCR_WZmpz-20" value="&lt;font color=&quot;#4a919b&quot;&gt;{ JSON }&lt;/font&gt;" style="text;html=1;strokeColor=none;fillColor=none;align=center;verticalAlign=middle;whiteSpace=wrap;rounded=0;fontSize=15;" parent="1" vertex="1">
          <mxGeometry x="540" y="492" width="72" height="30" as="geometry" />
        </mxCell>
        <mxCell id="p1h1nwEygJZJCR_WZmpz-21" value="" style="shape=flexArrow;endArrow=none;html=1;rounded=0;fontSize=15;fontColor=#4A919B;strokeColor=none;fillColor=#67AB9F;startArrow=block;startFill=0;endFill=0;" parent="1" edge="1">
          <mxGeometry width="50" height="50" relative="1" as="geometry">
            <mxPoint x="578.1700000000001" y="557" as="sourcePoint" />
            <mxPoint x="578.1700000000001" y="520" as="targetPoint" />
          </mxGeometry>
        </mxCell>
        <mxCell id="p1h1nwEygJZJCR_WZmpz-22" value="" style="shape=flexArrow;endArrow=none;html=1;rounded=0;fontSize=15;fontColor=#4A919B;strokeColor=none;fillColor=#67AB9F;startArrow=block;endFill=0;" parent="1" edge="1">
          <mxGeometry width="50" height="50" relative="1" as="geometry">
            <mxPoint x="577.6700000000001" y="492" as="sourcePoint" />
            <mxPoint x="577.6700000000001" y="455" as="targetPoint" />
          </mxGeometry>
        </mxCell>
        <mxCell id="p1h1nwEygJZJCR_WZmpz-23" value="反序列化" style="text;html=1;strokeColor=none;fillColor=none;align=center;verticalAlign=middle;whiteSpace=wrap;rounded=0;fontSize=15;fontColor=#4A919B;" parent="1" vertex="1">
          <mxGeometry x="601" y="462" width="71" height="30" as="geometry" />
        </mxCell>
        <mxCell id="p1h1nwEygJZJCR_WZmpz-24" value="" style="shape=flexArrow;endArrow=classic;html=1;rounded=0;fontSize=15;fontColor=#4A919B;strokeColor=none;fillColor=#67AB9F;" parent="1" edge="1">
          <mxGeometry width="50" height="50" relative="1" as="geometry">
            <mxPoint x="126" y="580.36" as="sourcePoint" />
            <mxPoint x="164" y="580.36" as="targetPoint" />
          </mxGeometry>
        </mxCell>
        <mxCell id="p1h1nwEygJZJCR_WZmpz-25" value="" style="shape=flexArrow;endArrow=classic;html=1;rounded=0;fontSize=15;fontColor=#4A919B;strokeColor=none;fillColor=#67AB9F;" parent="1" edge="1">
          <mxGeometry width="50" height="50" relative="1" as="geometry">
            <mxPoint x="634" y="578.1" as="sourcePoint" />
            <mxPoint x="672" y="578.1" as="targetPoint" />
          </mxGeometry>
        </mxCell>
        <mxCell id="p1h1nwEygJZJCR_WZmpz-26" value="TCP" style="text;html=1;strokeColor=none;fillColor=none;align=center;verticalAlign=middle;whiteSpace=wrap;rounded=0;fontSize=15;fontColor=#4A919B;" parent="1" vertex="1">
          <mxGeometry x="370" y="374" width="60" height="30" as="geometry" />
        </mxCell>
      </root>
    </mxGraphModel>
  </diagram>
</mxfile>
